<svg width="863" height="398" viewBox="0 0 863 398" fill="none" xmlns="http://www.w3.org/2000/svg">
<path fill-rule="evenodd" clip-rule="evenodd" d="M25.0553 120.139C2.89109 120.139 -8.21016 146.935 7.4604 162.61L86.6207 241.789C99.9858 255.158 118.115 262.668 137.018 262.668H159.953C186.478 262.668 211.918 273.207 230.672 291.966L306.39 367.702C325.144 386.461 350.583 397 377.109 397H598.78C643.149 397 665.372 343.359 634.002 311.982L581.167 259.134C569.297 247.261 577.706 226.963 594.495 226.963C611.284 226.963 619.693 206.666 607.823 194.792L495.291 82.2332C479.39 66.3285 457.821 57.393 435.331 57.393H317.012C291.031 57.393 266.114 47.0704 247.745 28.6965L245.368 26.3191C228.52 9.46747 205.668 0 181.839 0H49.9411C18.5925 0 2.8911 37.9001 25.0553 60.0696L42.6502 77.6688C58.3207 93.3431 47.2195 120.139 25.0553 120.139Z" fill="#2D314D"/>
<path fill-rule="evenodd" clip-rule="evenodd" d="M239.055 121.139C216.891 121.139 205.79 147.935 221.46 163.61L300.621 242.789C313.986 256.158 332.115 263.668 351.018 263.668H373.953C400.478 263.668 425.918 274.207 444.672 292.966L520.39 368.702C539.144 387.461 564.583 398 591.109 398H812.78C857.149 398 879.372 344.359 848.002 312.982L795.167 260.134C783.297 248.261 791.706 227.963 808.495 227.963C825.284 227.963 833.693 207.666 821.823 195.792L709.291 83.2332C693.39 67.3285 671.821 58.393 649.331 58.393H531.012C505.031 58.393 480.114 48.0704 461.745 29.6965L459.368 27.3191C442.52 10.4675 419.668 1 395.839 1H263.941C232.592 1 216.891 38.9001 239.055 61.0696L256.65 78.6688C272.321 94.3431 261.219 121.139 239.055 121.139Z" fill="url(#paint0_linear_15_36)"/>
<defs>
<linearGradient id="paint0_linear_15_36" x1="-196.418" y1="198.667" x2="129.527" y2="817.717" gradientUnits="userSpaceOnUse">
<stop stop-color="#33D35E"/>
<stop offset="1" stop-color="#2AB6D9"/>
</linearGradient>
</defs>
</svg>
